<mxfile host="app.diagrams.net" agent="Mozilla/5.0 (Windows NT 10.0; Win64; x64) AppleWebKit/537.36 (KHTML, like Gecko) Chrome/134.0.0.0 Safari/537.36" version="26.1.1">
  <diagram name="Page-1" id="ofmosxMPlsJZu1ZY1M7H">
    <mxGraphModel dx="1050" dy="557" grid="1" gridSize="10" guides="1" tooltips="1" connect="1" arrows="1" fold="1" page="1" pageScale="1" pageWidth="850" pageHeight="1100" math="0" shadow="0">
      <root>
        <mxCell id="0" />
        <mxCell id="1" parent="0" />
        <mxCell id="H6yvR1INJ8zY6IqdFhfA-1" value="" style="rounded=0;whiteSpace=wrap;html=1;" vertex="1" parent="1">
          <mxGeometry width="120" height="60" as="geometry" />
        </mxCell>
        <mxCell id="H6yvR1INJ8zY6IqdFhfA-2" value="aluno" style="text;html=1;align=center;verticalAlign=middle;whiteSpace=wrap;rounded=0;" vertex="1" parent="1">
          <mxGeometry x="30" y="15" width="60" height="30" as="geometry" />
        </mxCell>
        <mxCell id="H6yvR1INJ8zY6IqdFhfA-3" value="" style="rounded=0;whiteSpace=wrap;html=1;" vertex="1" parent="1">
          <mxGeometry x="160" width="120" height="60" as="geometry" />
        </mxCell>
        <mxCell id="H6yvR1INJ8zY6IqdFhfA-4" value="pais ou responsaveis" style="text;html=1;align=center;verticalAlign=middle;whiteSpace=wrap;rounded=0;" vertex="1" parent="1">
          <mxGeometry x="190" y="15" width="60" height="30" as="geometry" />
        </mxCell>
        <mxCell id="H6yvR1INJ8zY6IqdFhfA-5" value="" style="rounded=0;whiteSpace=wrap;html=1;" vertex="1" parent="1">
          <mxGeometry x="320" width="120" height="60" as="geometry" />
        </mxCell>
        <mxCell id="H6yvR1INJ8zY6IqdFhfA-6" value="diretoria" style="text;html=1;align=center;verticalAlign=middle;whiteSpace=wrap;rounded=0;" vertex="1" parent="1">
          <mxGeometry x="350" y="15" width="60" height="30" as="geometry" />
        </mxCell>
        <mxCell id="H6yvR1INJ8zY6IqdFhfA-7" value="" style="rounded=0;whiteSpace=wrap;html=1;" vertex="1" parent="1">
          <mxGeometry x="480" width="120" height="60" as="geometry" />
        </mxCell>
        <mxCell id="H6yvR1INJ8zY6IqdFhfA-8" value="professores" style="text;html=1;align=center;verticalAlign=middle;whiteSpace=wrap;rounded=0;" vertex="1" parent="1">
          <mxGeometry x="510" y="15" width="60" height="30" as="geometry" />
        </mxCell>
        <mxCell id="H6yvR1INJ8zY6IqdFhfA-9" value="" style="rounded=0;whiteSpace=wrap;html=1;" vertex="1" parent="1">
          <mxGeometry x="480" y="80" width="120" height="60" as="geometry" />
        </mxCell>
        <mxCell id="H6yvR1INJ8zY6IqdFhfA-10" value="aulas" style="text;html=1;align=center;verticalAlign=middle;whiteSpace=wrap;rounded=0;" vertex="1" parent="1">
          <mxGeometry x="510" y="95" width="60" height="30" as="geometry" />
        </mxCell>
        <mxCell id="H6yvR1INJ8zY6IqdFhfA-11" value="" style="rounded=0;whiteSpace=wrap;html=1;" vertex="1" parent="1">
          <mxGeometry x="320" y="80" width="120" height="60" as="geometry" />
        </mxCell>
        <mxCell id="H6yvR1INJ8zY6IqdFhfA-12" value="boletim e informaÃ§oes" style="text;html=1;align=center;verticalAlign=middle;whiteSpace=wrap;rounded=0;" vertex="1" parent="1">
          <mxGeometry x="350" y="95" width="60" height="30" as="geometry" />
        </mxCell>
        <mxCell id="H6yvR1INJ8zY6IqdFhfA-13" value="" style="rounded=0;whiteSpace=wrap;html=1;" vertex="1" parent="1">
          <mxGeometry x="160" y="80" width="120" height="60" as="geometry" />
        </mxCell>
        <mxCell id="H6yvR1INJ8zY6IqdFhfA-14" value="dados do filho" style="text;html=1;align=center;verticalAlign=middle;whiteSpace=wrap;rounded=0;" vertex="1" parent="1">
          <mxGeometry x="190" y="95" width="60" height="30" as="geometry" />
        </mxCell>
        <mxCell id="H6yvR1INJ8zY6IqdFhfA-15" value="" style="rounded=0;whiteSpace=wrap;html=1;" vertex="1" parent="1">
          <mxGeometry y="80" width="120" height="60" as="geometry" />
        </mxCell>
        <mxCell id="H6yvR1INJ8zY6IqdFhfA-16" value="conjunto de dados" style="text;html=1;align=center;verticalAlign=middle;whiteSpace=wrap;rounded=0;" vertex="1" parent="1">
          <mxGeometry x="30" y="95" width="60" height="30" as="geometry" />
        </mxCell>
        <mxCell id="H6yvR1INJ8zY6IqdFhfA-17" value="" style="rounded=0;whiteSpace=wrap;html=1;" vertex="1" parent="1">
          <mxGeometry y="160" width="120" height="60" as="geometry" />
        </mxCell>
        <mxCell id="H6yvR1INJ8zY6IqdFhfA-18" value="nome" style="text;html=1;align=center;verticalAlign=middle;whiteSpace=wrap;rounded=0;" vertex="1" parent="1">
          <mxGeometry x="30" y="175" width="60" height="30" as="geometry" />
        </mxCell>
        <mxCell id="H6yvR1INJ8zY6IqdFhfA-19" value="" style="rounded=0;whiteSpace=wrap;html=1;" vertex="1" parent="1">
          <mxGeometry y="240" width="120" height="60" as="geometry" />
        </mxCell>
        <mxCell id="H6yvR1INJ8zY6IqdFhfA-20" value="cpf" style="text;html=1;align=center;verticalAlign=middle;whiteSpace=wrap;rounded=0;" vertex="1" parent="1">
          <mxGeometry x="30" y="255" width="60" height="30" as="geometry" />
        </mxCell>
        <mxCell id="H6yvR1INJ8zY6IqdFhfA-21" value="" style="rounded=0;whiteSpace=wrap;html=1;" vertex="1" parent="1">
          <mxGeometry y="320" width="120" height="60" as="geometry" />
        </mxCell>
        <mxCell id="H6yvR1INJ8zY6IqdFhfA-22" value="idade" style="text;html=1;align=center;verticalAlign=middle;whiteSpace=wrap;rounded=0;" vertex="1" parent="1">
          <mxGeometry x="30" y="335" width="60" height="30" as="geometry" />
        </mxCell>
        <mxCell id="H6yvR1INJ8zY6IqdFhfA-23" value="" style="rounded=0;whiteSpace=wrap;html=1;" vertex="1" parent="1">
          <mxGeometry y="400" width="120" height="60" as="geometry" />
        </mxCell>
        <mxCell id="H6yvR1INJ8zY6IqdFhfA-24" value="materias" style="text;html=1;align=center;verticalAlign=middle;whiteSpace=wrap;rounded=0;" vertex="1" parent="1">
          <mxGeometry x="30" y="415" width="60" height="30" as="geometry" />
        </mxCell>
        <mxCell id="H6yvR1INJ8zY6IqdFhfA-25" value="" style="rounded=0;whiteSpace=wrap;html=1;" vertex="1" parent="1">
          <mxGeometry x="160" y="160" width="120" height="60" as="geometry" />
        </mxCell>
        <mxCell id="H6yvR1INJ8zY6IqdFhfA-26" value="nomes" style="text;html=1;align=center;verticalAlign=middle;whiteSpace=wrap;rounded=0;" vertex="1" parent="1">
          <mxGeometry x="190" y="175" width="60" height="30" as="geometry" />
        </mxCell>
        <mxCell id="H6yvR1INJ8zY6IqdFhfA-27" value="" style="rounded=0;whiteSpace=wrap;html=1;" vertex="1" parent="1">
          <mxGeometry x="160" y="240" width="120" height="60" as="geometry" />
        </mxCell>
        <mxCell id="H6yvR1INJ8zY6IqdFhfA-28" value="indentidades" style="text;html=1;align=center;verticalAlign=middle;whiteSpace=wrap;rounded=0;" vertex="1" parent="1">
          <mxGeometry x="190" y="255" width="60" height="30" as="geometry" />
        </mxCell>
        <mxCell id="H6yvR1INJ8zY6IqdFhfA-29" value="" style="rounded=0;whiteSpace=wrap;html=1;" vertex="1" parent="1">
          <mxGeometry x="160" y="320" width="120" height="60" as="geometry" />
        </mxCell>
        <mxCell id="H6yvR1INJ8zY6IqdFhfA-30" value="telefone" style="text;html=1;align=center;verticalAlign=middle;whiteSpace=wrap;rounded=0;" vertex="1" parent="1">
          <mxGeometry x="190" y="335" width="60" height="30" as="geometry" />
        </mxCell>
        <mxCell id="H6yvR1INJ8zY6IqdFhfA-31" value="" style="rounded=0;whiteSpace=wrap;html=1;" vertex="1" parent="1">
          <mxGeometry y="480" width="120" height="60" as="geometry" />
        </mxCell>
        <mxCell id="H6yvR1INJ8zY6IqdFhfA-32" value="telefone" style="text;html=1;align=center;verticalAlign=middle;whiteSpace=wrap;rounded=0;" vertex="1" parent="1">
          <mxGeometry x="30" y="495" width="60" height="30" as="geometry" />
        </mxCell>
        <mxCell id="H6yvR1INJ8zY6IqdFhfA-33" value="" style="rounded=0;whiteSpace=wrap;html=1;" vertex="1" parent="1">
          <mxGeometry x="320" y="160" width="120" height="60" as="geometry" />
        </mxCell>
        <mxCell id="H6yvR1INJ8zY6IqdFhfA-34" value="dados dos pais" style="text;html=1;align=center;verticalAlign=middle;whiteSpace=wrap;rounded=0;" vertex="1" parent="1">
          <mxGeometry x="350" y="175" width="60" height="30" as="geometry" />
        </mxCell>
        <mxCell id="H6yvR1INJ8zY6IqdFhfA-35" value="" style="rounded=0;whiteSpace=wrap;html=1;" vertex="1" parent="1">
          <mxGeometry x="320" y="240" width="120" height="60" as="geometry" />
        </mxCell>
        <mxCell id="H6yvR1INJ8zY6IqdFhfA-36" value="dados dos alunos" style="text;html=1;align=center;verticalAlign=middle;whiteSpace=wrap;rounded=0;" vertex="1" parent="1">
          <mxGeometry x="350" y="255" width="60" height="30" as="geometry" />
        </mxCell>
        <mxCell id="H6yvR1INJ8zY6IqdFhfA-37" value="" style="rounded=0;whiteSpace=wrap;html=1;" vertex="1" parent="1">
          <mxGeometry x="320" y="320" width="120" height="60" as="geometry" />
        </mxCell>
        <mxCell id="H6yvR1INJ8zY6IqdFhfA-38" value="dados dos professores" style="text;html=1;align=center;verticalAlign=middle;whiteSpace=wrap;rounded=0;" vertex="1" parent="1">
          <mxGeometry x="350" y="335" width="60" height="30" as="geometry" />
        </mxCell>
        <mxCell id="H6yvR1INJ8zY6IqdFhfA-39" value="" style="rounded=0;whiteSpace=wrap;html=1;" vertex="1" parent="1">
          <mxGeometry x="320" y="400" width="120" height="60" as="geometry" />
        </mxCell>
        <mxCell id="H6yvR1INJ8zY6IqdFhfA-40" value="aulas" style="text;html=1;align=center;verticalAlign=middle;whiteSpace=wrap;rounded=0;" vertex="1" parent="1">
          <mxGeometry x="350" y="415" width="60" height="30" as="geometry" />
        </mxCell>
        <mxCell id="H6yvR1INJ8zY6IqdFhfA-41" value="" style="rounded=0;whiteSpace=wrap;html=1;" vertex="1" parent="1">
          <mxGeometry x="320" y="480" width="120" height="60" as="geometry" />
        </mxCell>
        <mxCell id="H6yvR1INJ8zY6IqdFhfA-42" value="materias" style="text;html=1;align=center;verticalAlign=middle;whiteSpace=wrap;rounded=0;" vertex="1" parent="1">
          <mxGeometry x="350" y="495" width="60" height="30" as="geometry" />
        </mxCell>
        <mxCell id="H6yvR1INJ8zY6IqdFhfA-43" value="" style="rounded=0;whiteSpace=wrap;html=1;" vertex="1" parent="1">
          <mxGeometry x="480" y="160" width="120" height="60" as="geometry" />
        </mxCell>
        <mxCell id="H6yvR1INJ8zY6IqdFhfA-44" value="alunos" style="text;html=1;align=center;verticalAlign=middle;whiteSpace=wrap;rounded=0;" vertex="1" parent="1">
          <mxGeometry x="510" y="175" width="60" height="30" as="geometry" />
        </mxCell>
        <mxCell id="H6yvR1INJ8zY6IqdFhfA-45" value="" style="rounded=0;whiteSpace=wrap;html=1;" vertex="1" parent="1">
          <mxGeometry x="480" y="240" width="120" height="60" as="geometry" />
        </mxCell>
        <mxCell id="H6yvR1INJ8zY6IqdFhfA-46" value="materias" style="text;html=1;align=center;verticalAlign=middle;whiteSpace=wrap;rounded=0;" vertex="1" parent="1">
          <mxGeometry x="510" y="255" width="60" height="30" as="geometry" />
        </mxCell>
        <mxCell id="H6yvR1INJ8zY6IqdFhfA-47" value="" style="rounded=0;whiteSpace=wrap;html=1;" vertex="1" parent="1">
          <mxGeometry x="480" y="320" width="120" height="60" as="geometry" />
        </mxCell>
        <mxCell id="H6yvR1INJ8zY6IqdFhfA-48" value="horarios" style="text;html=1;align=center;verticalAlign=middle;whiteSpace=wrap;rounded=0;" vertex="1" parent="1">
          <mxGeometry x="510" y="335" width="60" height="30" as="geometry" />
        </mxCell>
      </root>
    </mxGraphModel>
  </diagram>
</mxfile>
